<svg xmlns="http://www.w3.org/2000/svg" viewBox="0 0 262.83 50.41"><defs><style>.cls-1{fill:#fff;}</style></defs><title>LogoAsset 2</title><g id="Layer_2" data-name="Layer 2"><g id="Layer_1-2" data-name="Layer 1"><path class="cls-1" d="M18.29,11H13V9.83a5.76,5.76,0,0,0-.86-3.17A3.21,3.21,0,0,0,9.2,5.33a3.35,3.35,0,0,0-1.78.42,3.65,3.65,0,0,0-1.1,1,4.36,4.36,0,0,0-.57,1.55,9.49,9.49,0,0,0-.16,1.8c0,.73,0,1.34.08,1.83a3.35,3.35,0,0,0,.39,1.3,2.91,2.91,0,0,0,.92,1,8,8,0,0,0,1.64.83l4.08,1.62a10.29,10.29,0,0,1,2.87,1.6,6.74,6.74,0,0,1,1.73,2.12,9.93,9.93,0,0,1,.78,2.84,28.25,28.25,0,0,1,.21,3.64,18.8,18.8,0,0,1-.47,4.36,9.23,9.23,0,0,1-1.51,3.42A7.45,7.45,0,0,1,13.43,37a10.09,10.09,0,0,1-4.34.84,9.49,9.49,0,0,1-3.6-.68,8.51,8.51,0,0,1-2.88-1.88,9.19,9.19,0,0,1-1.9-2.8A8.48,8.48,0,0,1,0,29V27H5.33v1.67a4.37,4.37,0,0,0,.86,2.64,3.35,3.35,0,0,0,2.9,1.18,4.69,4.69,0,0,0,2.12-.39A2.92,2.92,0,0,0,12.39,31a4.22,4.22,0,0,0,.49-1.75c.06-.68.08-1.44.08-2.27a22.71,22.71,0,0,0-.1-2.41,4.11,4.11,0,0,0-.42-1.51,3,3,0,0,0-1-.94,11.72,11.72,0,0,0-1.59-.79L6.06,19.76A8.46,8.46,0,0,1,1.44,16,12.77,12.77,0,0,1,.26,10.19a13.28,13.28,0,0,1,.58-4A8.91,8.91,0,0,1,2.56,3,7.79,7.79,0,0,1,5.36.81,9.32,9.32,0,0,1,9.41,0,8.82,8.82,0,0,1,13,.73a9.22,9.22,0,0,1,2.85,1.94,8.06,8.06,0,0,1,2.4,5.74Z"/><path class="cls-1" d="M25.77,37.52V5.33H19.6v-5H37.26v5H31.1V37.52Z"/><path class="cls-1" d="M34.34,37.52,42.65.31h4.44L55.4,37.52H50.07l-1.57-8H41.23l-1.56,8Zm13.17-13L44.89,11h-.1L42.18,24.51Z"/><path class="cls-1" d="M60.1,37.52V21.79L52.79.31h5.64L62.72,15.1h.1L67.11.31h5.64L65.43,21.79V37.52Z"/><path class="cls-1" d="M85.13,37.52V.31h5.34V16.25h6.58V.31h5.33V37.52H97.05V21H90.47V37.52Z"/><path class="cls-1" d="M107.55,37.52V.31h5.34V37.52Z"/><path class="cls-1" d="M117.75,9.09a9.57,9.57,0,0,1,.78-4,8.29,8.29,0,0,1,2.09-2.87A8.88,8.88,0,0,1,123.47.58,9.23,9.23,0,0,1,126.68,0a9.32,9.32,0,0,1,3.22.58,9.45,9.45,0,0,1,2.9,1.67,8.86,8.86,0,0,1,2,2.87,9.57,9.57,0,0,1,.78,4V11h-5.33V9.09a3.55,3.55,0,0,0-1.07-2.84,4,4,0,0,0-5.07,0,3.52,3.52,0,0,0-1.07,2.84V28.74a3.53,3.53,0,0,0,1.07,2.85,4,4,0,0,0,5.07,0,3.56,3.56,0,0,0,1.07-2.85v-7h-4.23V17h9.56v11.7a9.5,9.5,0,0,1-.78,4,8.53,8.53,0,0,1-2,2.77,8.85,8.85,0,0,1-2.9,1.72,9.32,9.32,0,0,1-3.22.58,9.23,9.23,0,0,1-3.21-.58,8.34,8.34,0,0,1-2.85-1.72,8,8,0,0,1-2.09-2.77,9.5,9.5,0,0,1-.78-4Z"/><path class="cls-1" d="M140.32,37.52V.31h5.33V16.25h6.59V.31h5.33V37.52h-5.33V21h-6.59V37.52Z"/><path class="cls-1" d="M189.24,26.92v2.3a8.39,8.39,0,0,1-.65,3.26,9.18,9.18,0,0,1-1.81,2.75,8.58,8.58,0,0,1-2.69,1.9,7.88,7.88,0,0,1-3.32.71,11.83,11.83,0,0,1-3.08-.42A7.38,7.38,0,0,1,174.87,36a8.16,8.16,0,0,1-2.07-2.69,9.54,9.54,0,0,1-.81-4.21V8.57a9.06,9.06,0,0,1,.63-3.4,7.94,7.94,0,0,1,1.78-2.71A8.24,8.24,0,0,1,177.14.65,9.32,9.32,0,0,1,180.67,0a8.05,8.05,0,0,1,6.11,2.46,8.79,8.79,0,0,1,1.81,2.84,9.78,9.78,0,0,1,.65,3.58V11h-5.33V9.2A4.33,4.33,0,0,0,183,6.48a2.86,2.86,0,0,0-2.4-1.15A2.7,2.7,0,0,0,178,6.56a6.52,6.52,0,0,0-.66,3.11v19a4.94,4.94,0,0,0,.71,2.72,2.77,2.77,0,0,0,2.53,1.1,3.66,3.66,0,0,0,1.13-.19,3.3,3.3,0,0,0,1.12-.6,3,3,0,0,0,.79-1.15,4.6,4.6,0,0,0,.31-1.83V26.92Z"/><path class="cls-1" d="M193.58,37.52V.31h8.57q9.4,0,9.41,10.93a13.75,13.75,0,0,1-1,5.59A8,8,0,0,1,207,20.54l5.75,17h-5.65l-5-15.88h-3.19V37.52Zm5.33-32.19v11.6h3a5.41,5.41,0,0,0,2.25-.39,3,3,0,0,0,1.3-1.12,5.21,5.21,0,0,0,.58-1.81,17.9,17.9,0,0,0,.16-2.48,17.9,17.9,0,0,0-.16-2.48,5,5,0,0,0-.63-1.86c-.66-1-1.91-1.46-3.76-1.46Z"/><path class="cls-1" d="M215.84,37.52V.31h15.89v5H221.17V16.25h9.2v5h-9.2V32.19h10.56v5.33Z"/><path class="cls-1" d="M262.83.31l-5.54,37.21h-5l-4.08-24.14h-.1l-4,24.14h-5L233.51.31h5.64l2.67,23.63h.1L246.1.31h4.08l4.34,24.2h.1L257.18.31Z"/><path class="cls-1" d="M.29,50.33V41.79H2.72a4.6,4.6,0,0,1,1.17.13,2.51,2.51,0,0,1,.92.47,1.82,1.82,0,0,1,.57.79,3.89,3.89,0,0,1,.16,1.21,4.54,4.54,0,0,1-.09,1,1.78,1.78,0,0,1-.37.74,2.13,2.13,0,0,1-.89.65A3.74,3.74,0,0,1,2.73,47H1.91v3.33Zm1.62-7.39v2.91h.78a2.18,2.18,0,0,0,.76-.11.76.76,0,0,0,.39-.3A.81.81,0,0,0,4,45a5.09,5.09,0,0,0,0-.58c0-.2,0-.39,0-.57a1.08,1.08,0,0,0-.14-.48.84.84,0,0,0-.38-.31,2,2,0,0,0-.73-.11Z"/><path class="cls-1" d="M28.93,50.33V41.79h2.59c1.91,0,2.86.84,2.86,2.51a2.55,2.55,0,0,1-.31,1.28,2.16,2.16,0,0,1-1.09.85l1.75,3.9H33l-1.5-3.64h-1v3.64Zm1.61-7.39v2.67h.92a2.07,2.07,0,0,0,.68-.09,1,1,0,0,0,.4-.26,1,1,0,0,0,.17-.42,2.42,2.42,0,0,0,0-.57,2.52,2.52,0,0,0,0-.57.9.9,0,0,0-.19-.42,1.48,1.48,0,0,0-1.14-.34Z"/><path class="cls-1" d="M57.77,43.81a1.75,1.75,0,0,1,.23-.92,2.12,2.12,0,0,1,.64-.66,3.21,3.21,0,0,1,.86-.38,3.72,3.72,0,0,1,2,0,3.66,3.66,0,0,1,.88.38,2.29,2.29,0,0,1,.62.66,1.85,1.85,0,0,1,.23.92v4.51a1.77,1.77,0,0,1-.23.92,2.1,2.1,0,0,1-.62.64,3,3,0,0,1-.88.39,3.47,3.47,0,0,1-2,0,2.7,2.7,0,0,1-.86-.39,2,2,0,0,1-.64-.64,1.68,1.68,0,0,1-.23-.92Zm1.61,4.51a.72.72,0,0,0,.33.65,1.5,1.5,0,0,0,1.53,0,.72.72,0,0,0,.33-.65V43.81a.73.73,0,0,0-.33-.66,1.5,1.5,0,0,0-1.53,0,.73.73,0,0,0-.33.66Z"/><path class="cls-1" d="M86.79,50.33V41.79h2.4a3.28,3.28,0,0,1,2.11.58A2,2,0,0,1,92,44v4a2,2,0,0,1-.77,1.77,3.64,3.64,0,0,1-2.21.57Zm1.62-7.39v6.24h.75a1.38,1.38,0,0,0,1-.26,1,1,0,0,0,.29-.81V44a1.06,1.06,0,0,0-.27-.78,1.34,1.34,0,0,0-1-.28Z"/><path class="cls-1" d="M121,41.79v6.62a1.62,1.62,0,0,1-.2.78,2.19,2.19,0,0,1-.56.63,3,3,0,0,1-.84.43,3.4,3.4,0,0,1-1,.16,3.22,3.22,0,0,1-1-.16,2.9,2.9,0,0,1-.84-.43,2.4,2.4,0,0,1-.57-.63,1.62,1.62,0,0,1-.2-.78V41.79h1.61v6.5a.81.81,0,0,0,.29.68,1.32,1.32,0,0,0,1.43,0,.8.8,0,0,0,.28-.68v-6.5Z"/><path class="cls-1" d="M149.8,47.9v.53a1.56,1.56,0,0,1-.2.75,2.31,2.31,0,0,1-.55.63,2.61,2.61,0,0,1-.81.43,3.06,3.06,0,0,1-1,.17,5.09,5.09,0,0,1-.94-.1,2.45,2.45,0,0,1-.85-.34,2.15,2.15,0,0,1-.63-.61,1.81,1.81,0,0,1-.24-1v-4.7a1.61,1.61,0,0,1,.19-.78,1.79,1.79,0,0,1,.54-.63,2.8,2.8,0,0,1,.83-.41,3.59,3.59,0,0,1,1.07-.15,2.91,2.91,0,0,1,1.85.56,2,2,0,0,1,.55.66,1.74,1.74,0,0,1,.2.82v.48h-1.62v-.41a.83.83,0,0,0-.27-.62,1,1,0,0,0-.73-.27,1,1,0,0,0-.8.28,1.25,1.25,0,0,0-.2.72v4.37a.83.83,0,0,0,1,.87,1.42,1.42,0,0,0,.34,0,1.11,1.11,0,0,0,.34-.14.74.74,0,0,0,.33-.68V47.9Z"/><path class="cls-1" d="M174.36,50.33V42.94h-1.87V41.79h5.35v1.15H176v7.39Z"/><path class="cls-1" d="M200.79,50.33V41.79h1.61v8.54Z"/><path class="cls-1" d="M226.06,43.81a1.75,1.75,0,0,1,.24-.92,2.2,2.2,0,0,1,.63-.66,3.27,3.27,0,0,1,.87-.38,3.54,3.54,0,0,1,1-.13,3.54,3.54,0,0,1,1.86.51,2.26,2.26,0,0,1,.61.66,1.75,1.75,0,0,1,.24.92v4.51a1.68,1.68,0,0,1-.24.92,2.07,2.07,0,0,1-.61.64,3,3,0,0,1-.88.39,3.68,3.68,0,0,1-1,.14,3.55,3.55,0,0,1-1-.14,2.76,2.76,0,0,1-.87-.39,2,2,0,0,1-.63-.64,1.68,1.68,0,0,1-.24-.92Zm1.62,4.51A.73.73,0,0,0,228,49a1.41,1.41,0,0,0,.77.21,1.39,1.39,0,0,0,.77-.21.71.71,0,0,0,.32-.65V43.81a.72.72,0,0,0-.32-.66,1.39,1.39,0,0,0-.77-.21,1.41,1.41,0,0,0-.77.21.74.74,0,0,0-.32.66Z"/><path class="cls-1" d="M255,50.33V41.79h1.55L259,46.94h0V41.79h1.62v8.54h-1.52l-2.48-5.13h0v5.13Z"/></g></g></svg>